<mxfile host="app.diagrams.net" modified="2023-08-10T14:44:29.842Z" agent="Mozilla/5.0 (Windows NT 10.0; Win64; x64) AppleWebKit/537.36 (KHTML, like Gecko) Chrome/115.0.0.0 Safari/537.36" etag="9WYvYvFY85Cx_soXoGoS" version="21.6.7" type="device">
  <diagram name="Page-1" id="RwiI079AIhKvK0Lc_4Rx">
    <mxGraphModel dx="1434" dy="790" grid="1" gridSize="10" guides="1" tooltips="1" connect="1" arrows="1" fold="1" page="1" pageScale="1" pageWidth="1169" pageHeight="827" math="0" shadow="0">
      <root>
        <mxCell id="0" />
        <mxCell id="1" parent="0" />
        <mxCell id="cw12b3K8NFvBaHwGcll2-1" value="Data &lt;br&gt;Analytics &lt;br&gt;Team" style="ellipse;whiteSpace=wrap;html=1;aspect=fixed;fillColor=#d5e8d4;strokeColor=#82b366;fontSize=16;fontStyle=1" parent="1" vertex="1">
          <mxGeometry x="590" y="380" width="120" height="120" as="geometry" />
        </mxCell>
        <mxCell id="cw12b3K8NFvBaHwGcll2-2" value="Technical" style="ellipse;whiteSpace=wrap;html=1;aspect=fixed;fillColor=#dae8fc;strokeColor=#6c8ebf;fontSize=16;" parent="1" vertex="1">
          <mxGeometry x="271.07" y="140" width="120" height="120" as="geometry" />
        </mxCell>
        <mxCell id="cw12b3K8NFvBaHwGcll2-3" value="Data" style="ellipse;whiteSpace=wrap;html=1;aspect=fixed;fillColor=#fff2cc;strokeColor=#d6b656;fontSize=16;" parent="1" vertex="1">
          <mxGeometry x="879" y="140" width="120" height="120" as="geometry" />
        </mxCell>
        <mxCell id="cw12b3K8NFvBaHwGcll2-4" value="Method" style="ellipse;whiteSpace=wrap;html=1;aspect=fixed;fillColor=#e1d5e7;strokeColor=#9673a6;fontSize=16;" parent="1" vertex="1">
          <mxGeometry x="710" y="598" width="120" height="120" as="geometry" />
        </mxCell>
        <mxCell id="cw12b3K8NFvBaHwGcll2-5" value="Business&lt;br style=&quot;font-size: 16px;&quot;&gt;Intelligence" style="ellipse;whiteSpace=wrap;html=1;aspect=fixed;fillColor=#fff2cc;strokeColor=#d6b656;opacity=70;fontSize=16;" parent="1" vertex="1">
          <mxGeometry x="870" y="30" width="80" height="80" as="geometry" />
        </mxCell>
        <mxCell id="cw12b3K8NFvBaHwGcll2-6" value="" style="endArrow=none;html=1;rounded=0;fontSize=16;" parent="1" source="cw12b3K8NFvBaHwGcll2-1" target="cw12b3K8NFvBaHwGcll2-3" edge="1">
          <mxGeometry width="50" height="50" relative="1" as="geometry">
            <mxPoint x="869" y="280" as="sourcePoint" />
            <mxPoint x="919" y="230" as="targetPoint" />
          </mxGeometry>
        </mxCell>
        <mxCell id="cw12b3K8NFvBaHwGcll2-7" value="" style="endArrow=none;html=1;rounded=0;fontSize=16;" parent="1" source="cw12b3K8NFvBaHwGcll2-1" target="cw12b3K8NFvBaHwGcll2-2" edge="1">
          <mxGeometry width="50" height="50" relative="1" as="geometry">
            <mxPoint x="869" y="280" as="sourcePoint" />
            <mxPoint x="839" y="230" as="targetPoint" />
          </mxGeometry>
        </mxCell>
        <mxCell id="cw12b3K8NFvBaHwGcll2-8" value="" style="endArrow=none;html=1;rounded=0;fontSize=16;" parent="1" source="cw12b3K8NFvBaHwGcll2-1" target="cw12b3K8NFvBaHwGcll2-4" edge="1">
          <mxGeometry width="50" height="50" relative="1" as="geometry">
            <mxPoint x="810.2267264733996" y="450.00031398534844" as="sourcePoint" />
            <mxPoint x="1059" y="161.06" as="targetPoint" />
          </mxGeometry>
        </mxCell>
        <mxCell id="cw12b3K8NFvBaHwGcll2-9" value="" style="endArrow=none;html=1;rounded=0;fontSize=16;" parent="1" source="cw12b3K8NFvBaHwGcll2-5" target="cw12b3K8NFvBaHwGcll2-3" edge="1">
          <mxGeometry width="50" height="50" relative="1" as="geometry">
            <mxPoint x="869" y="280" as="sourcePoint" />
            <mxPoint x="919" y="230" as="targetPoint" />
          </mxGeometry>
        </mxCell>
        <mxCell id="cw12b3K8NFvBaHwGcll2-10" value="Analysis" style="ellipse;whiteSpace=wrap;html=1;aspect=fixed;fillColor=#fff2cc;strokeColor=#d6b656;opacity=70;fontSize=16;" parent="1" vertex="1">
          <mxGeometry x="969" y="280" width="80" height="80" as="geometry" />
        </mxCell>
        <mxCell id="cw12b3K8NFvBaHwGcll2-11" value="" style="endArrow=none;html=1;rounded=0;fontSize=16;" parent="1" source="cw12b3K8NFvBaHwGcll2-3" target="cw12b3K8NFvBaHwGcll2-10" edge="1">
          <mxGeometry width="50" height="50" relative="1" as="geometry">
            <mxPoint x="869" y="280" as="sourcePoint" />
            <mxPoint x="919" y="230" as="targetPoint" />
          </mxGeometry>
        </mxCell>
        <mxCell id="cw12b3K8NFvBaHwGcll2-12" value="Linkage" style="ellipse;whiteSpace=wrap;html=1;aspect=fixed;fillColor=#fff2cc;strokeColor=#d6b656;opacity=70;fontSize=16;" parent="1" vertex="1">
          <mxGeometry x="879" y="354" width="80" height="80" as="geometry" />
        </mxCell>
        <mxCell id="cw12b3K8NFvBaHwGcll2-13" value="" style="endArrow=none;html=1;rounded=0;fontSize=16;" parent="1" source="cw12b3K8NFvBaHwGcll2-12" target="cw12b3K8NFvBaHwGcll2-3" edge="1">
          <mxGeometry width="50" height="50" relative="1" as="geometry">
            <mxPoint x="869" y="280" as="sourcePoint" />
            <mxPoint x="919" y="230" as="targetPoint" />
          </mxGeometry>
        </mxCell>
        <mxCell id="cw12b3K8NFvBaHwGcll2-14" value="Management" style="ellipse;whiteSpace=wrap;html=1;aspect=fixed;fillColor=#fff2cc;strokeColor=#d6b656;opacity=70;fontSize=12;" parent="1" vertex="1">
          <mxGeometry x="1029" y="20" width="80" height="80" as="geometry" />
        </mxCell>
        <mxCell id="cw12b3K8NFvBaHwGcll2-15" value="" style="endArrow=none;html=1;rounded=0;fontSize=16;" parent="1" source="cw12b3K8NFvBaHwGcll2-3" target="cw12b3K8NFvBaHwGcll2-14" edge="1">
          <mxGeometry width="50" height="50" relative="1" as="geometry">
            <mxPoint x="869" y="280" as="sourcePoint" />
            <mxPoint x="919" y="230" as="targetPoint" />
          </mxGeometry>
        </mxCell>
        <mxCell id="cw12b3K8NFvBaHwGcll2-16" value="Visualisation" style="ellipse;whiteSpace=wrap;html=1;aspect=fixed;fillColor=#fff2cc;strokeColor=#d6b656;opacity=70;fontSize=14;" parent="1" vertex="1">
          <mxGeometry x="1049" y="140" width="80" height="80" as="geometry" />
        </mxCell>
        <mxCell id="cw12b3K8NFvBaHwGcll2-17" value="" style="endArrow=none;html=1;rounded=0;fontSize=16;" parent="1" source="cw12b3K8NFvBaHwGcll2-3" target="cw12b3K8NFvBaHwGcll2-16" edge="1">
          <mxGeometry width="50" height="50" relative="1" as="geometry">
            <mxPoint x="1069" y="280" as="sourcePoint" />
            <mxPoint x="1119" y="230" as="targetPoint" />
          </mxGeometry>
        </mxCell>
        <mxCell id="cw12b3K8NFvBaHwGcll2-18" value="Warehousing" style="ellipse;whiteSpace=wrap;html=1;aspect=fixed;fillColor=#fff2cc;strokeColor=#d6b656;opacity=70;fontSize=12;" parent="1" vertex="1">
          <mxGeometry x="1070" y="240" width="80" height="80" as="geometry" />
        </mxCell>
        <mxCell id="cw12b3K8NFvBaHwGcll2-19" value="" style="endArrow=none;html=1;rounded=0;fontSize=16;" parent="1" source="cw12b3K8NFvBaHwGcll2-3" target="cw12b3K8NFvBaHwGcll2-18" edge="1">
          <mxGeometry width="50" height="50" relative="1" as="geometry">
            <mxPoint x="1069" y="280" as="sourcePoint" />
            <mxPoint x="1119" y="230" as="targetPoint" />
          </mxGeometry>
        </mxCell>
        <mxCell id="cw12b3K8NFvBaHwGcll2-20" value="RDMS" style="ellipse;whiteSpace=wrap;html=1;aspect=fixed;fillColor=#fff2cc;strokeColor=#d6b656;opacity=70;fontSize=16;" parent="1" vertex="1">
          <mxGeometry x="719" y="210" width="80" height="80" as="geometry" />
        </mxCell>
        <mxCell id="cw12b3K8NFvBaHwGcll2-29" value="" style="endArrow=none;html=1;rounded=0;fontSize=16;" parent="1" source="cw12b3K8NFvBaHwGcll2-3" target="cw12b3K8NFvBaHwGcll2-20" edge="1">
          <mxGeometry width="50" height="50" relative="1" as="geometry">
            <mxPoint x="1069" y="280" as="sourcePoint" />
            <mxPoint x="1119" y="230" as="targetPoint" />
          </mxGeometry>
        </mxCell>
        <mxCell id="cw12b3K8NFvBaHwGcll2-30" value=".Net" style="ellipse;whiteSpace=wrap;html=1;aspect=fixed;fillColor=#dae8fc;gradientColor=#e1d5e7;opacity=70;fontSize=16;" parent="1" vertex="1">
          <mxGeometry x="280" y="590" width="80" height="80" as="geometry" />
        </mxCell>
        <mxCell id="cw12b3K8NFvBaHwGcll2-31" value="" style="endArrow=none;html=1;rounded=0;fontSize=16;fillColor=#dae8fc;gradientColor=#e1d5e7;opacity=70;" parent="1" source="cw12b3K8NFvBaHwGcll2-30" target="cw12b3K8NFvBaHwGcll2-84" edge="1">
          <mxGeometry width="50" height="50" relative="1" as="geometry">
            <mxPoint x="721.07" y="816" as="sourcePoint" />
            <mxPoint x="771.07" y="766" as="targetPoint" />
          </mxGeometry>
        </mxCell>
        <mxCell id="cw12b3K8NFvBaHwGcll2-32" value="AWS" style="ellipse;whiteSpace=wrap;html=1;aspect=fixed;fillColor=#dae8fc;strokeColor=#6c8ebf;opacity=70;fontSize=16;" parent="1" vertex="1">
          <mxGeometry x="100" y="150" width="80" height="80" as="geometry" />
        </mxCell>
        <mxCell id="cw12b3K8NFvBaHwGcll2-33" value="" style="endArrow=none;html=1;rounded=0;fontSize=16;" parent="1" source="cw12b3K8NFvBaHwGcll2-32" target="cw12b3K8NFvBaHwGcll2-2" edge="1">
          <mxGeometry width="50" height="50" relative="1" as="geometry">
            <mxPoint x="401.07" y="130" as="sourcePoint" />
            <mxPoint x="451.07" y="80" as="targetPoint" />
          </mxGeometry>
        </mxCell>
        <mxCell id="cw12b3K8NFvBaHwGcll2-34" value="SQL" style="ellipse;whiteSpace=wrap;html=1;aspect=fixed;gradientDirection=east;fillColor=#dae8fc;strokeColor=#6c8ebf;gradientColor=#fff2cc;fontSize=16;" parent="1" vertex="1">
          <mxGeometry x="590" y="180" width="80" height="80" as="geometry" />
        </mxCell>
        <mxCell id="cw12b3K8NFvBaHwGcll2-36" value="" style="endArrow=none;html=1;rounded=0;fontSize=16;" parent="1" source="cw12b3K8NFvBaHwGcll2-34" target="cw12b3K8NFvBaHwGcll2-20" edge="1">
          <mxGeometry width="50" height="50" relative="1" as="geometry">
            <mxPoint x="722" y="180" as="sourcePoint" />
            <mxPoint x="772" y="130" as="targetPoint" />
          </mxGeometry>
        </mxCell>
        <mxCell id="cw12b3K8NFvBaHwGcll2-37" value="Apache&lt;br style=&quot;font-size: 16px;&quot;&gt;Spark" style="ellipse;whiteSpace=wrap;html=1;aspect=fixed;fillColor=#dae8fc;strokeColor=#6c8ebf;opacity=70;gradientDirection=east;gradientColor=#fff2cc;fontSize=16;" parent="1" vertex="1">
          <mxGeometry x="710" y="90" width="80" height="80" as="geometry" />
        </mxCell>
        <mxCell id="cw12b3K8NFvBaHwGcll2-38" value="" style="endArrow=none;html=1;rounded=0;fontSize=16;" parent="1" source="cw12b3K8NFvBaHwGcll2-37" target="cw12b3K8NFvBaHwGcll2-2" edge="1">
          <mxGeometry width="50" height="50" relative="1" as="geometry">
            <mxPoint x="491.07" y="130" as="sourcePoint" />
            <mxPoint x="541.0699999999999" y="80" as="targetPoint" />
          </mxGeometry>
        </mxCell>
        <mxCell id="cw12b3K8NFvBaHwGcll2-39" value="API&lt;br style=&quot;font-size: 16px;&quot;&gt;Gateway" style="ellipse;whiteSpace=wrap;html=1;aspect=fixed;fillColor=#dae8fc;strokeColor=#6c8ebf;opacity=70;fontSize=16;" parent="1" vertex="1">
          <mxGeometry x="140" y="274" width="80" height="80" as="geometry" />
        </mxCell>
        <mxCell id="cw12b3K8NFvBaHwGcll2-40" value="" style="endArrow=none;html=1;rounded=0;fontSize=16;" parent="1" source="cw12b3K8NFvBaHwGcll2-32" target="cw12b3K8NFvBaHwGcll2-39" edge="1">
          <mxGeometry width="50" height="50" relative="1" as="geometry">
            <mxPoint x="621.0699999999999" y="250" as="sourcePoint" />
            <mxPoint x="671.0699999999999" y="200" as="targetPoint" />
          </mxGeometry>
        </mxCell>
        <mxCell id="cw12b3K8NFvBaHwGcll2-41" value="C#" style="ellipse;whiteSpace=wrap;html=1;aspect=fixed;fillColor=#dae8fc;gradientColor=#e1d5e7;opacity=70;fontSize=16;" parent="1" vertex="1">
          <mxGeometry x="160" y="626" width="80" height="80" as="geometry" />
        </mxCell>
        <mxCell id="cw12b3K8NFvBaHwGcll2-42" value="" style="endArrow=none;html=1;rounded=0;fontSize=16;fillColor=#dae8fc;gradientColor=#e1d5e7;opacity=70;" parent="1" source="cw12b3K8NFvBaHwGcll2-84" target="cw12b3K8NFvBaHwGcll2-41" edge="1">
          <mxGeometry width="50" height="50" relative="1" as="geometry">
            <mxPoint x="861.07" y="816" as="sourcePoint" />
            <mxPoint x="911.07" y="766" as="targetPoint" />
          </mxGeometry>
        </mxCell>
        <mxCell id="cw12b3K8NFvBaHwGcll2-43" value="Cognitive Services" style="ellipse;whiteSpace=wrap;html=1;aspect=fixed;fillColor=#dae8fc;strokeColor=#6c8ebf;opacity=70;fontSize=16;" parent="1" vertex="1">
          <mxGeometry x="630" y="280" width="80" height="80" as="geometry" />
        </mxCell>
        <mxCell id="cw12b3K8NFvBaHwGcll2-44" value="Azure" style="ellipse;whiteSpace=wrap;html=1;aspect=fixed;fillColor=#dae8fc;strokeColor=#6c8ebf;opacity=70;fontSize=16;" parent="1" vertex="1">
          <mxGeometry x="460" y="210" width="80" height="80" as="geometry" />
        </mxCell>
        <mxCell id="cw12b3K8NFvBaHwGcll2-45" value="" style="endArrow=none;html=1;rounded=0;fontSize=16;" parent="1" source="cw12b3K8NFvBaHwGcll2-44" target="cw12b3K8NFvBaHwGcll2-2" edge="1">
          <mxGeometry width="50" height="50" relative="1" as="geometry">
            <mxPoint x="469" y="210" as="sourcePoint" />
            <mxPoint x="519" y="160" as="targetPoint" />
          </mxGeometry>
        </mxCell>
        <mxCell id="cw12b3K8NFvBaHwGcll2-46" value="" style="endArrow=none;html=1;rounded=0;fontSize=16;" parent="1" source="cw12b3K8NFvBaHwGcll2-43" target="cw12b3K8NFvBaHwGcll2-44" edge="1">
          <mxGeometry width="50" height="50" relative="1" as="geometry">
            <mxPoint x="469" y="210" as="sourcePoint" />
            <mxPoint x="519" y="160" as="targetPoint" />
          </mxGeometry>
        </mxCell>
        <mxCell id="cw12b3K8NFvBaHwGcll2-47" value="CSS" style="ellipse;whiteSpace=wrap;html=1;aspect=fixed;fillColor=#dae8fc;gradientColor=#e1d5e7;opacity=70;fontSize=16;" parent="1" vertex="1">
          <mxGeometry x="241.07" y="718" width="80" height="80" as="geometry" />
        </mxCell>
        <mxCell id="cw12b3K8NFvBaHwGcll2-48" value="" style="endArrow=none;html=1;rounded=0;fontSize=16;fillColor=#dae8fc;gradientColor=#e1d5e7;opacity=70;" parent="1" source="cw12b3K8NFvBaHwGcll2-47" target="cw12b3K8NFvBaHwGcll2-84" edge="1">
          <mxGeometry width="50" height="50" relative="1" as="geometry">
            <mxPoint x="861.07" y="816" as="sourcePoint" />
            <mxPoint x="911.07" y="766" as="targetPoint" />
          </mxGeometry>
        </mxCell>
        <mxCell id="cw12b3K8NFvBaHwGcll2-49" value="Dev Ops" style="ellipse;whiteSpace=wrap;html=1;aspect=fixed;fillColor=#dae8fc;strokeColor=#6c8ebf;opacity=70;fontSize=16;" parent="1" vertex="1">
          <mxGeometry x="180" y="40" width="80" height="80" as="geometry" />
        </mxCell>
        <mxCell id="cw12b3K8NFvBaHwGcll2-50" value="" style="endArrow=none;html=1;rounded=0;fontSize=16;" parent="1" source="cw12b3K8NFvBaHwGcll2-49" target="cw12b3K8NFvBaHwGcll2-2" edge="1">
          <mxGeometry width="50" height="50" relative="1" as="geometry">
            <mxPoint x="431.07" y="130" as="sourcePoint" />
            <mxPoint x="481.07" y="80" as="targetPoint" />
          </mxGeometry>
        </mxCell>
        <mxCell id="cw12b3K8NFvBaHwGcll2-51" value="DynamoDB" style="ellipse;whiteSpace=wrap;html=1;aspect=fixed;fillColor=#dae8fc;strokeColor=#6c8ebf;opacity=70;fontSize=16;" parent="1" vertex="1">
          <mxGeometry x="20" y="60" width="80" height="80" as="geometry" />
        </mxCell>
        <mxCell id="cw12b3K8NFvBaHwGcll2-52" value="" style="endArrow=none;html=1;rounded=0;fontSize=16;" parent="1" source="cw12b3K8NFvBaHwGcll2-32" target="cw12b3K8NFvBaHwGcll2-51" edge="1">
          <mxGeometry width="50" height="50" relative="1" as="geometry">
            <mxPoint x="691.0699999999999" y="250" as="sourcePoint" />
            <mxPoint x="741.0699999999999" y="200" as="targetPoint" />
          </mxGeometry>
        </mxCell>
        <mxCell id="cw12b3K8NFvBaHwGcll2-53" value="HTML" style="ellipse;whiteSpace=wrap;html=1;aspect=fixed;fillColor=#dae8fc;gradientColor=#e1d5e7;opacity=70;fontSize=16;" parent="1" vertex="1">
          <mxGeometry x="51.06999999999999" y="528" width="80" height="80" as="geometry" />
        </mxCell>
        <mxCell id="cw12b3K8NFvBaHwGcll2-54" value="" style="endArrow=none;html=1;rounded=0;fontSize=16;" parent="1" source="cw12b3K8NFvBaHwGcll2-84" target="cw12b3K8NFvBaHwGcll2-2" edge="1">
          <mxGeometry width="50" height="50" relative="1" as="geometry">
            <mxPoint x="539" y="280" as="sourcePoint" />
            <mxPoint x="589" y="230" as="targetPoint" />
          </mxGeometry>
        </mxCell>
        <mxCell id="cw12b3K8NFvBaHwGcll2-55" value="Java" style="ellipse;whiteSpace=wrap;html=1;aspect=fixed;fillColor=#dae8fc;gradientColor=#e1d5e7;opacity=70;fontSize=16;" parent="1" vertex="1">
          <mxGeometry x="51.06999999999999" y="666" width="80" height="80" as="geometry" />
        </mxCell>
        <mxCell id="cw12b3K8NFvBaHwGcll2-56" value="Javascript" style="ellipse;whiteSpace=wrap;html=1;aspect=fixed;fillColor=#dae8fc;gradientColor=#e1d5e7;opacity=70;fontSize=16;" parent="1" vertex="1">
          <mxGeometry x="20" y="428" width="80" height="80" as="geometry" />
        </mxCell>
        <mxCell id="cw12b3K8NFvBaHwGcll2-57" value="" style="endArrow=none;html=1;rounded=0;fontSize=16;fillColor=#dae8fc;gradientColor=#e1d5e7;opacity=70;" parent="1" source="cw12b3K8NFvBaHwGcll2-55" target="cw12b3K8NFvBaHwGcll2-84" edge="1">
          <mxGeometry width="50" height="50" relative="1" as="geometry">
            <mxPoint x="671.07" y="816" as="sourcePoint" />
            <mxPoint x="721.07" y="766" as="targetPoint" />
          </mxGeometry>
        </mxCell>
        <mxCell id="cw12b3K8NFvBaHwGcll2-58" value="" style="endArrow=none;html=1;rounded=0;opacity=70;fontSize=16;" parent="1" source="cw12b3K8NFvBaHwGcll2-56" target="cw12b3K8NFvBaHwGcll2-84" edge="1">
          <mxGeometry width="50" height="50" relative="1" as="geometry">
            <mxPoint x="204.5608201825089" y="527.871556037557" as="sourcePoint" />
            <mxPoint x="721.07" y="766" as="targetPoint" />
          </mxGeometry>
        </mxCell>
        <mxCell id="cw12b3K8NFvBaHwGcll2-59" value="Lambda" style="ellipse;whiteSpace=wrap;html=1;aspect=fixed;fillColor=#dae8fc;strokeColor=#6c8ebf;opacity=70;fontSize=16;" parent="1" vertex="1">
          <mxGeometry x="19.999999999999993" y="240" width="80" height="80" as="geometry" />
        </mxCell>
        <mxCell id="cw12b3K8NFvBaHwGcll2-60" value="" style="endArrow=none;html=1;rounded=0;fontSize=16;" parent="1" source="cw12b3K8NFvBaHwGcll2-59" target="cw12b3K8NFvBaHwGcll2-32" edge="1">
          <mxGeometry width="50" height="50" relative="1" as="geometry">
            <mxPoint x="661.0699999999999" y="250" as="sourcePoint" />
            <mxPoint x="711.0699999999999" y="200" as="targetPoint" />
          </mxGeometry>
        </mxCell>
        <mxCell id="cw12b3K8NFvBaHwGcll2-61" value="Python" style="ellipse;whiteSpace=wrap;html=1;aspect=fixed;gradientDirection=east;fillColor=#dae8fc;strokeColor=#6c8ebf;gradientColor=none;opacity=70;fontSize=16;" parent="1" vertex="1">
          <mxGeometry x="311.07" y="20" width="80" height="80" as="geometry" />
        </mxCell>
        <mxCell id="cw12b3K8NFvBaHwGcll2-62" value="" style="endArrow=none;html=1;rounded=0;fontSize=16;" parent="1" source="cw12b3K8NFvBaHwGcll2-2" target="cw12b3K8NFvBaHwGcll2-61" edge="1">
          <mxGeometry width="50" height="50" relative="1" as="geometry">
            <mxPoint x="769" y="280" as="sourcePoint" />
            <mxPoint x="819" y="230" as="targetPoint" />
          </mxGeometry>
        </mxCell>
        <mxCell id="cw12b3K8NFvBaHwGcll2-63" value="R" style="ellipse;whiteSpace=wrap;html=1;aspect=fixed;gradientDirection=east;fillColor=#dae8fc;strokeColor=#6c8ebf;gradientColor=none;fontSize=16;" parent="1" vertex="1">
          <mxGeometry x="430" y="60" width="80" height="80" as="geometry" />
        </mxCell>
        <mxCell id="cw12b3K8NFvBaHwGcll2-64" value="" style="endArrow=none;html=1;rounded=0;fontSize=16;" parent="1" source="cw12b3K8NFvBaHwGcll2-63" target="cw12b3K8NFvBaHwGcll2-2" edge="1">
          <mxGeometry width="50" height="50" relative="1" as="geometry">
            <mxPoint x="769" y="280" as="sourcePoint" />
            <mxPoint x="819" y="230" as="targetPoint" />
          </mxGeometry>
        </mxCell>
        <mxCell id="cw12b3K8NFvBaHwGcll2-65" value="Reinforcement Learning" style="ellipse;whiteSpace=wrap;html=1;aspect=fixed;fillColor=#dae8fc;gradientColor=#e1d5e7;opacity=70;fontSize=12;" parent="1" vertex="1">
          <mxGeometry x="340" y="362" width="80" height="80" as="geometry" />
        </mxCell>
        <mxCell id="cw12b3K8NFvBaHwGcll2-66" value="" style="endArrow=none;html=1;rounded=0;fontSize=16;" parent="1" source="cw12b3K8NFvBaHwGcll2-65" target="cw12b3K8NFvBaHwGcll2-2" edge="1">
          <mxGeometry width="50" height="50" relative="1" as="geometry">
            <mxPoint x="498.9975295643961" y="326.0969324112009" as="sourcePoint" />
            <mxPoint x="891.0699999999999" y="150" as="targetPoint" />
          </mxGeometry>
        </mxCell>
        <mxCell id="cw12b3K8NFvBaHwGcll2-67" value="Agile" style="ellipse;whiteSpace=wrap;html=1;aspect=fixed;fillColor=#e1d5e7;strokeColor=#9673a6;opacity=70;fontSize=16;" parent="1" vertex="1">
          <mxGeometry x="969" y="690" width="80" height="80" as="geometry" />
        </mxCell>
        <mxCell id="cw12b3K8NFvBaHwGcll2-68" value="" style="endArrow=none;html=1;rounded=0;fontSize=16;" parent="1" source="cw12b3K8NFvBaHwGcll2-4" target="cw12b3K8NFvBaHwGcll2-67" edge="1">
          <mxGeometry width="50" height="50" relative="1" as="geometry">
            <mxPoint x="909" y="711.06" as="sourcePoint" />
            <mxPoint x="959" y="661.06" as="targetPoint" />
          </mxGeometry>
        </mxCell>
        <mxCell id="cw12b3K8NFvBaHwGcll2-69" value="De-identification" style="ellipse;whiteSpace=wrap;html=1;aspect=fixed;fillColor=#e1d5e7;strokeColor=#9673a6;opacity=70;fontSize=14;" parent="1" vertex="1">
          <mxGeometry x="979" y="580" width="80" height="80" as="geometry" />
        </mxCell>
        <mxCell id="cw12b3K8NFvBaHwGcll2-70" value="" style="endArrow=none;html=1;rounded=0;fontSize=16;" parent="1" source="cw12b3K8NFvBaHwGcll2-4" target="cw12b3K8NFvBaHwGcll2-69" edge="1">
          <mxGeometry width="50" height="50" relative="1" as="geometry">
            <mxPoint x="909" y="711.06" as="sourcePoint" />
            <mxPoint x="959" y="661.06" as="targetPoint" />
          </mxGeometry>
        </mxCell>
        <mxCell id="cw12b3K8NFvBaHwGcll2-71" value="ETL" style="ellipse;whiteSpace=wrap;html=1;aspect=fixed;fillColor=#e1d5e7;strokeColor=#9673a6;opacity=70;fontSize=16;" parent="1" vertex="1">
          <mxGeometry x="1070" y="478" width="80" height="80" as="geometry" />
        </mxCell>
        <mxCell id="cw12b3K8NFvBaHwGcll2-72" value="" style="endArrow=none;html=1;rounded=0;fontSize=16;" parent="1" source="cw12b3K8NFvBaHwGcll2-71" target="cw12b3K8NFvBaHwGcll2-4" edge="1">
          <mxGeometry width="50" height="50" relative="1" as="geometry">
            <mxPoint x="909" y="711.06" as="sourcePoint" />
            <mxPoint x="959" y="661.06" as="targetPoint" />
          </mxGeometry>
        </mxCell>
        <mxCell id="cw12b3K8NFvBaHwGcll2-73" value="Information Governance" style="ellipse;whiteSpace=wrap;html=1;aspect=fixed;fillColor=#e1d5e7;strokeColor=#9673a6;opacity=70;fontSize=14;" parent="1" vertex="1">
          <mxGeometry x="570" y="698" width="80" height="80" as="geometry" />
        </mxCell>
        <mxCell id="cw12b3K8NFvBaHwGcll2-74" value="" style="endArrow=none;html=1;rounded=0;fontSize=16;" parent="1" source="cw12b3K8NFvBaHwGcll2-73" target="cw12b3K8NFvBaHwGcll2-4" edge="1">
          <mxGeometry width="50" height="50" relative="1" as="geometry">
            <mxPoint x="909" y="711.06" as="sourcePoint" />
            <mxPoint x="959" y="661.06" as="targetPoint" />
          </mxGeometry>
        </mxCell>
        <mxCell id="cw12b3K8NFvBaHwGcll2-75" value="Machine Learning" style="ellipse;whiteSpace=wrap;html=1;aspect=fixed;gradientColor=#e1d5e7;fillColor=#dae8fc;opacity=70;fontSize=16;" parent="1" vertex="1">
          <mxGeometry x="460" y="442" width="80" height="80" as="geometry" />
        </mxCell>
        <mxCell id="cw12b3K8NFvBaHwGcll2-76" value="" style="endArrow=none;html=1;rounded=0;fontSize=16;" parent="1" source="cw12b3K8NFvBaHwGcll2-4" target="cw12b3K8NFvBaHwGcll2-75" edge="1">
          <mxGeometry width="50" height="50" relative="1" as="geometry">
            <mxPoint x="769" y="780" as="sourcePoint" />
            <mxPoint x="819" y="730" as="targetPoint" />
          </mxGeometry>
        </mxCell>
        <mxCell id="cw12b3K8NFvBaHwGcll2-77" value="" style="endArrow=none;html=1;rounded=0;fontSize=16;" parent="1" source="cw12b3K8NFvBaHwGcll2-65" target="cw12b3K8NFvBaHwGcll2-75" edge="1">
          <mxGeometry width="50" height="50" relative="1" as="geometry">
            <mxPoint x="769" y="780" as="sourcePoint" />
            <mxPoint x="819" y="730" as="targetPoint" />
          </mxGeometry>
        </mxCell>
        <mxCell id="cw12b3K8NFvBaHwGcll2-78" value="Natural Language Processing" style="ellipse;whiteSpace=wrap;html=1;aspect=fixed;fillColor=#e1d5e7;strokeColor=#9673a6;opacity=70;fontSize=14;" parent="1" vertex="1">
          <mxGeometry x="879" y="478" width="80" height="80" as="geometry" />
        </mxCell>
        <mxCell id="cw12b3K8NFvBaHwGcll2-79" value="" style="endArrow=none;html=1;rounded=0;fontSize=16;" parent="1" source="cw12b3K8NFvBaHwGcll2-78" target="cw12b3K8NFvBaHwGcll2-4" edge="1">
          <mxGeometry width="50" height="50" relative="1" as="geometry">
            <mxPoint x="909" y="711.06" as="sourcePoint" />
            <mxPoint x="959" y="661.06" as="targetPoint" />
          </mxGeometry>
        </mxCell>
        <mxCell id="cw12b3K8NFvBaHwGcll2-80" value="Statistics" style="ellipse;whiteSpace=wrap;html=1;aspect=fixed;fillColor=#e1d5e7;strokeColor=#9673a6;opacity=70;fontSize=16;" parent="1" vertex="1">
          <mxGeometry x="819" y="718" width="80" height="80" as="geometry" />
        </mxCell>
        <mxCell id="cw12b3K8NFvBaHwGcll2-81" value="" style="endArrow=none;html=1;rounded=0;fontSize=16;" parent="1" source="cw12b3K8NFvBaHwGcll2-4" target="cw12b3K8NFvBaHwGcll2-80" edge="1">
          <mxGeometry width="50" height="50" relative="1" as="geometry">
            <mxPoint x="909" y="711.06" as="sourcePoint" />
            <mxPoint x="959" y="661.06" as="targetPoint" />
          </mxGeometry>
        </mxCell>
        <mxCell id="cw12b3K8NFvBaHwGcll2-82" value="Trusted Research Environments" style="ellipse;whiteSpace=wrap;html=1;aspect=fixed;fillColor=#e1d5e7;strokeColor=#9673a6;opacity=70;fontSize=12;" parent="1" vertex="1">
          <mxGeometry x="470" y="618" width="80" height="80" as="geometry" />
        </mxCell>
        <mxCell id="cw12b3K8NFvBaHwGcll2-83" value="" style="endArrow=none;html=1;rounded=0;fontSize=16;" parent="1" source="cw12b3K8NFvBaHwGcll2-4" target="cw12b3K8NFvBaHwGcll2-82" edge="1">
          <mxGeometry width="50" height="50" relative="1" as="geometry">
            <mxPoint x="909" y="711.06" as="sourcePoint" />
            <mxPoint x="959" y="661.06" as="targetPoint" />
          </mxGeometry>
        </mxCell>
        <mxCell id="cw12b3K8NFvBaHwGcll2-84" value="Web Development" style="ellipse;whiteSpace=wrap;html=1;aspect=fixed;fillColor=#dae8fc;gradientColor=#e1d5e7;opacity=70;fontSize=16;" parent="1" vertex="1">
          <mxGeometry x="171.07" y="450" width="101.07" height="101.07" as="geometry" />
        </mxCell>
        <mxCell id="cw12b3K8NFvBaHwGcll2-85" value="" style="endArrow=none;html=1;rounded=0;fontSize=16;" parent="1" source="cw12b3K8NFvBaHwGcll2-84" target="cw12b3K8NFvBaHwGcll2-4" edge="1">
          <mxGeometry width="50" height="50" relative="1" as="geometry">
            <mxPoint x="769" y="780" as="sourcePoint" />
            <mxPoint x="819" y="730" as="targetPoint" />
          </mxGeometry>
        </mxCell>
        <mxCell id="cw12b3K8NFvBaHwGcll2-87" value="" style="endArrow=none;html=1;rounded=0;fontSize=16;fillColor=#dae8fc;gradientColor=#e1d5e7;opacity=70;" parent="1" source="cw12b3K8NFvBaHwGcll2-84" target="cw12b3K8NFvBaHwGcll2-53" edge="1">
          <mxGeometry width="50" height="50" relative="1" as="geometry">
            <mxPoint x="911.07" y="966" as="sourcePoint" />
            <mxPoint x="961.07" y="916" as="targetPoint" />
          </mxGeometry>
        </mxCell>
        <mxCell id="cw12b3K8NFvBaHwGcll2-90" value="" style="endArrow=none;html=1;rounded=0;fontSize=16;" parent="1" source="cw12b3K8NFvBaHwGcll2-44" target="cw12b3K8NFvBaHwGcll2-34" edge="1">
          <mxGeometry width="50" height="50" relative="1" as="geometry">
            <mxPoint x="389" y="450" as="sourcePoint" />
            <mxPoint x="439" y="400" as="targetPoint" />
          </mxGeometry>
        </mxCell>
        <mxCell id="res4liufjP142V7Sd3_B-16" value="" style="endArrow=none;html=1;rounded=0;fontSize=16;" parent="1" source="cw12b3K8NFvBaHwGcll2-3" target="cw12b3K8NFvBaHwGcll2-37" edge="1">
          <mxGeometry width="50" height="50" relative="1" as="geometry">
            <mxPoint x="260" y="520" as="sourcePoint" />
            <mxPoint x="310" y="470" as="targetPoint" />
          </mxGeometry>
        </mxCell>
      </root>
    </mxGraphModel>
  </diagram>
</mxfile>
